# MagicaVoxel @ Ephtracy

# material
mtllib car.mtl
usemtl palette

# normals
vn -1 0 0
vn 1 0 0
vn 0 0 1
vn 0 0 -1
vn 0 -1 0
vn 0 1 0

# texcoords
vt 0.423828 0.5
vt 0.685547 0.5
vt 0.705078 0.5
vt 0.740234 0.5
vt 0.955078 0.5

# verts
v -10 3 8
v -10 3 -8
v -10 5 8
v -10 5 5
v -10 5 -5
v -10 5 -8
v -10 6 5
v -10 6 -5
v -10 8 5
v -10 8 4
v -10 8 -4
v -10 8 -5
v -10 13 4
v -10 13 -4
v -8 0 6
v -8 0 3
v -8 0 -4
v -8 0 -7
v -8 3 6
v -8 3 3
v -8 3 -4
v -8 3 -7
v -7 0 7
v -7 0 6
v -7 0 3
v -7 0 2
v -7 0 -3
v -7 0 -4
v -7 0 -7
v -7 0 -8
v -7 3 7
v -7 3 6
v -7 3 3
v -7 3 2
v -7 3 -3
v -7 3 -4
v -7 3 -7
v -7 3 -8
v -6 13 4
v -6 13 -4
v -6 15 4
v -6 15 -4
v 3 0 6
v 3 0 3
v 3 0 -4
v 3 0 -7
v 3 3 6
v 3 3 3
v 3 3 -4
v 3 3 -7
v 4 0 7
v 4 0 6
v 4 0 3
v 4 0 2
v 4 0 -3
v 4 0 -4
v 4 0 -7
v 4 0 -8
v 4 3 7
v 4 3 6
v 4 3 3
v 4 3 2
v 4 3 -3
v 4 3 -4
v 4 3 -7
v 4 3 -8
v 8 8 3
v 8 8 -3
v 8 9 4
v 8 9 3
v 8 9 -3
v 8 9 -4
v 8 15 4
v 8 15 -4
v -4 0 7
v -4 0 6
v -4 0 3
v -4 0 2
v -4 0 -3
v -4 0 -4
v -4 0 -7
v -4 0 -8
v -4 3 7
v -4 3 6
v -4 3 3
v -4 3 2
v -4 3 -3
v -4 3 -4
v -4 3 -7
v -4 3 -8
v -4 8 3
v -4 8 -3
v -4 9 4
v -4 9 3
v -4 9 -3
v -4 9 -4
v -4 15 4
v -4 15 -4
v -3 0 6
v -3 0 3
v -3 0 -4
v -3 0 -7
v -3 3 6
v -3 3 3
v -3 3 -4
v -3 3 -7
v 7 0 7
v 7 0 6
v 7 0 3
v 7 0 2
v 7 0 -3
v 7 0 -4
v 7 0 -7
v 7 0 -8
v 7 3 7
v 7 3 6
v 7 3 3
v 7 3 2
v 7 3 -3
v 7 3 -4
v 7 3 -7
v 7 3 -8
v 8 0 6
v 8 0 3
v 8 0 -4
v 8 0 -7
v 8 3 6
v 8 3 3
v 8 3 -4
v 8 3 -7
v 9 13 4
v 9 13 -4
v 9 15 4
v 9 15 -4
v 10 3 8
v 10 3 -8
v 10 5 8
v 10 5 5
v 10 5 -5
v 10 5 -8
v 10 6 5
v 10 6 -5
v 10 8 5
v 10 8 4
v 10 8 -4
v 10 8 -5
v 10 13 4
v 10 13 -4
v -10 3 8
v -10 5 8
v 10 3 8
v 10 5 8
v -7 0 7
v -7 3 7
v -4 0 7
v -4 3 7
v 4 0 7
v 4 3 7
v 7 0 7
v 7 3 7
v -8 0 6
v -8 3 6
v -7 0 6
v -7 3 6
v -4 0 6
v -4 3 6
v -3 0 6
v -3 3 6
v 3 0 6
v 3 3 6
v 4 0 6
v 4 3 6
v 7 0 6
v 7 3 6
v 8 0 6
v 8 3 6
v -10 5 5
v -10 6 5
v -10 8 5
v 10 5 5
v 10 6 5
v 10 8 5
v -10 8 4
v -10 13 4
v -6 13 4
v -6 15 4
v -4 9 4
v -4 15 4
v 8 9 4
v 8 15 4
v 9 13 4
v 9 15 4
v 10 8 4
v 10 13 4
v -7 0 -3
v -7 3 -3
v -4 0 -3
v -4 3 -3
v -4 8 -3
v -4 9 -3
v 4 0 -3
v 4 3 -3
v 7 0 -3
v 7 3 -3
v 8 8 -3
v 8 9 -3
v -8 0 -4
v -8 3 -4
v -7 0 -4
v -7 3 -4
v -4 0 -4
v -4 3 -4
v -3 0 -4
v -3 3 -4
v 3 0 -4
v 3 3 -4
v 4 0 -4
v 4 3 -4
v 7 0 -4
v 7 3 -4
v 8 0 -4
v 8 3 -4
v -8 0 3
v -8 3 3
v -7 0 3
v -7 3 3
v -4 0 3
v -4 3 3
v -4 8 3
v -4 9 3
v -3 0 3
v -3 3 3
v 3 0 3
v 3 3 3
v 4 0 3
v 4 3 3
v 7 0 3
v 7 3 3
v 8 0 3
v 8 3 3
v 8 8 3
v 8 9 3
v -7 0 2
v -7 3 2
v -4 0 2
v -4 3 2
v 4 0 2
v 4 3 2
v 7 0 2
v 7 3 2
v -10 8 -4
v -10 13 -4
v -6 13 -4
v -6 15 -4
v -4 9 -4
v -4 15 -4
v 8 9 -4
v 8 15 -4
v 9 13 -4
v 9 15 -4
v 10 8 -4
v 10 13 -4
v -10 5 -5
v -10 6 -5
v -10 8 -5
v 10 5 -5
v 10 6 -5
v 10 8 -5
v -8 0 -7
v -8 3 -7
v -7 0 -7
v -7 3 -7
v -4 0 -7
v -4 3 -7
v -3 0 -7
v -3 3 -7
v 3 0 -7
v 3 3 -7
v 4 0 -7
v 4 3 -7
v 7 0 -7
v 7 3 -7
v 8 0 -7
v 8 3 -7
v -10 3 -8
v -10 5 -8
v -7 0 -8
v -7 3 -8
v -4 0 -8
v -4 3 -8
v 4 0 -8
v 4 3 -8
v 7 0 -8
v 7 3 -8
v 10 3 -8
v 10 5 -8
v -7 0 7
v -4 0 7
v 4 0 7
v 7 0 7
v -8 0 6
v -7 0 6
v -4 0 6
v -3 0 6
v 3 0 6
v 4 0 6
v 7 0 6
v 8 0 6
v -8 0 3
v -7 0 3
v -4 0 3
v -3 0 3
v 3 0 3
v 4 0 3
v 7 0 3
v 8 0 3
v -7 0 2
v -4 0 2
v 4 0 2
v 7 0 2
v -7 0 -3
v -4 0 -3
v 4 0 -3
v 7 0 -3
v -8 0 -4
v -7 0 -4
v -4 0 -4
v -3 0 -4
v 3 0 -4
v 4 0 -4
v 7 0 -4
v 8 0 -4
v -8 0 -7
v -7 0 -7
v -4 0 -7
v -3 0 -7
v 3 0 -7
v 4 0 -7
v 7 0 -7
v 8 0 -7
v -7 0 -8
v -4 0 -8
v 4 0 -8
v 7 0 -8
v -10 3 8
v 10 3 8
v -7 3 7
v -4 3 7
v 4 3 7
v 7 3 7
v -8 3 6
v -7 3 6
v -4 3 6
v -3 3 6
v 3 3 6
v 4 3 6
v 7 3 6
v 8 3 6
v -8 3 3
v -7 3 3
v -4 3 3
v -3 3 3
v 3 3 3
v 4 3 3
v 7 3 3
v 8 3 3
v -7 3 2
v -4 3 2
v 4 3 2
v 7 3 2
v -7 3 -3
v -4 3 -3
v 4 3 -3
v 7 3 -3
v -8 3 -4
v -7 3 -4
v -4 3 -4
v -3 3 -4
v 3 3 -4
v 4 3 -4
v 7 3 -4
v 8 3 -4
v -8 3 -7
v -7 3 -7
v -4 3 -7
v -3 3 -7
v 3 3 -7
v 4 3 -7
v 7 3 -7
v 8 3 -7
v -10 3 -8
v -7 3 -8
v -4 3 -8
v 4 3 -8
v 7 3 -8
v 10 3 -8
v -10 5 8
v 10 5 8
v -10 5 5
v 10 5 5
v -10 5 -5
v 10 5 -5
v -10 5 -8
v 10 5 -8
v -10 8 5
v 10 8 5
v -10 8 4
v 10 8 4
v -4 8 3
v 8 8 3
v -4 8 -3
v 8 8 -3
v -10 8 -4
v 10 8 -4
v -10 8 -5
v 10 8 -5
v -4 9 4
v 8 9 4
v -4 9 3
v 8 9 3
v -4 9 -3
v 8 9 -3
v -4 9 -4
v 8 9 -4
v -10 13 4
v -6 13 4
v 9 13 4
v 10 13 4
v -10 13 -4
v -6 13 -4
v 9 13 -4
v 10 13 -4
v -6 15 4
v -4 15 4
v 8 15 4
v 9 15 4
v -6 15 -4
v -4 15 -4
v 8 15 -4
v 9 15 -4

# faces
f 3/4/1 2/4/1 1/4/1
f 4/4/1 2/4/1 3/4/1
f 5/4/1 2/4/1 4/4/1
f 6/4/1 2/4/1 5/4/1
f 7/1/1 5/1/1 4/1/1
f 8/1/1 5/1/1 7/1/1
f 9/3/1 8/3/1 7/3/1
f 10/3/1 8/3/1 9/3/1
f 11/3/1 8/3/1 10/3/1
f 12/3/1 8/3/1 11/3/1
f 13/2/1 11/2/1 10/2/1
f 14/2/1 11/2/1 13/2/1
f 19/5/1 16/5/1 15/5/1
f 20/5/1 16/5/1 19/5/1
f 21/5/1 18/5/1 17/5/1
f 22/5/1 18/5/1 21/5/1
f 31/5/1 24/5/1 23/5/1
f 32/5/1 24/5/1 31/5/1
f 33/5/1 26/5/1 25/5/1
f 34/5/1 26/5/1 33/5/1
f 35/5/1 28/5/1 27/5/1
f 36/5/1 28/5/1 35/5/1
f 37/5/1 30/5/1 29/5/1
f 38/5/1 30/5/1 37/5/1
f 41/2/1 40/2/1 39/2/1
f 42/2/1 40/2/1 41/2/1
f 47/5/1 44/5/1 43/5/1
f 48/5/1 44/5/1 47/5/1
f 49/5/1 46/5/1 45/5/1
f 50/5/1 46/5/1 49/5/1
f 59/5/1 52/5/1 51/5/1
f 60/5/1 52/5/1 59/5/1
f 61/5/1 54/5/1 53/5/1
f 62/5/1 54/5/1 61/5/1
f 63/5/1 56/5/1 55/5/1
f 64/5/1 56/5/1 63/5/1
f 65/5/1 58/5/1 57/5/1
f 66/5/1 58/5/1 65/5/1
f 70/2/1 68/2/1 67/2/1
f 71/2/1 68/2/1 70/2/1
f 73/2/1 70/2/1 69/2/1
f 73/2/1 72/2/1 71/2/1
f 73/2/1 71/2/1 70/2/1
f 74/2/1 72/2/1 73/2/1
f 75/5/2 76/5/2 83/5/2
f 83/5/2 76/5/2 84/5/2
f 77/5/2 78/5/2 85/5/2
f 85/5/2 78/5/2 86/5/2
f 79/5/2 80/5/2 87/5/2
f 87/5/2 80/5/2 88/5/2
f 81/5/2 82/5/2 89/5/2
f 89/5/2 82/5/2 90/5/2
f 91/2/2 92/2/2 94/2/2
f 94/2/2 92/2/2 95/2/2
f 93/2/2 94/2/2 97/2/2
f 95/2/2 96/2/2 97/2/2
f 94/2/2 95/2/2 97/2/2
f 97/2/2 96/2/2 98/2/2
f 99/5/2 100/5/2 103/5/2
f 103/5/2 100/5/2 104/5/2
f 101/5/2 102/5/2 105/5/2
f 105/5/2 102/5/2 106/5/2
f 107/5/2 108/5/2 115/5/2
f 115/5/2 108/5/2 116/5/2
f 109/5/2 110/5/2 117/5/2
f 117/5/2 110/5/2 118/5/2
f 111/5/2 112/5/2 119/5/2
f 119/5/2 112/5/2 120/5/2
f 113/5/2 114/5/2 121/5/2
f 121/5/2 114/5/2 122/5/2
f 123/5/2 124/5/2 127/5/2
f 127/5/2 124/5/2 128/5/2
f 125/5/2 126/5/2 129/5/2
f 129/5/2 126/5/2 130/5/2
f 131/2/2 132/2/2 133/2/2
f 133/2/2 132/2/2 134/2/2
f 135/4/2 136/4/2 137/4/2
f 137/4/2 136/4/2 138/4/2
f 138/4/2 136/4/2 139/4/2
f 139/4/2 136/4/2 140/4/2
f 138/1/2 139/1/2 141/1/2
f 141/1/2 139/1/2 142/1/2
f 141/3/2 142/3/2 143/3/2
f 143/3/2 142/3/2 144/3/2
f 144/3/2 142/3/2 145/3/2
f 145/3/2 142/3/2 146/3/2
f 144/2/2 145/2/2 147/2/2
f 147/2/2 145/2/2 148/2/2
f 151/4/3 150/4/3 149/4/3
f 152/4/3 150/4/3 151/4/3
f 155/5/3 154/5/3 153/5/3
f 156/5/3 154/5/3 155/5/3
f 159/5/3 158/5/3 157/5/3
f 160/5/3 158/5/3 159/5/3
f 163/5/3 162/5/3 161/5/3
f 164/5/3 162/5/3 163/5/3
f 167/5/3 166/5/3 165/5/3
f 168/5/3 166/5/3 167/5/3
f 171/5/3 170/5/3 169/5/3
f 172/5/3 170/5/3 171/5/3
f 175/5/3 174/5/3 173/5/3
f 176/5/3 174/5/3 175/5/3
f 180/1/3 178/1/3 177/1/3
f 181/3/3 179/3/3 178/3/3
f 181/1/3 178/1/3 180/1/3
f 182/3/3 179/3/3 181/3/3
f 185/2/3 184/2/3 183/2/3
f 187/2/3 185/2/3 183/2/3
f 187/2/3 186/2/3 185/2/3
f 188/2/3 186/2/3 187/2/3
f 189/2/3 187/2/3 183/2/3
f 191/2/3 190/2/3 189/2/3
f 192/2/3 190/2/3 191/2/3
f 193/2/3 189/2/3 183/2/3
f 193/2/3 191/2/3 189/2/3
f 194/2/3 191/2/3 193/2/3
f 197/5/3 196/5/3 195/5/3
f 198/5/3 196/5/3 197/5/3
f 203/5/3 202/5/3 201/5/3
f 204/5/3 202/5/3 203/5/3
f 205/2/3 200/2/3 199/2/3
f 206/2/3 200/2/3 205/2/3
f 209/5/3 208/5/3 207/5/3
f 210/5/3 208/5/3 209/5/3
f 213/5/3 212/5/3 211/5/3
f 214/5/3 212/5/3 213/5/3
f 217/5/3 216/5/3 215/5/3
f 218/5/3 216/5/3 217/5/3
f 221/5/3 220/5/3 219/5/3
f 222/5/3 220/5/3 221/5/3
f 223/5/4 224/5/4 225/5/4
f 225/5/4 224/5/4 226/5/4
f 227/5/4 228/5/4 231/5/4
f 231/5/4 228/5/4 232/5/4
f 233/5/4 234/5/4 235/5/4
f 235/5/4 234/5/4 236/5/4
f 237/5/4 238/5/4 239/5/4
f 239/5/4 238/5/4 240/5/4
f 229/2/4 230/2/4 241/2/4
f 241/2/4 230/2/4 242/2/4
f 243/5/4 244/5/4 245/5/4
f 245/5/4 244/5/4 246/5/4
f 247/5/4 248/5/4 249/5/4
f 249/5/4 248/5/4 250/5/4
f 251/2/4 252/2/4 253/2/4
f 251/2/4 253/2/4 255/2/4
f 253/2/4 254/2/4 255/2/4
f 255/2/4 254/2/4 256/2/4
f 251/2/4 255/2/4 257/2/4
f 257/2/4 258/2/4 259/2/4
f 259/2/4 258/2/4 260/2/4
f 251/2/4 257/2/4 261/2/4
f 257/2/4 259/2/4 261/2/4
f 261/2/4 259/2/4 262/2/4
f 263/1/4 264/1/4 266/1/4
f 264/3/4 265/3/4 267/3/4
f 266/1/4 264/1/4 267/1/4
f 267/3/4 265/3/4 268/3/4
f 269/5/4 270/5/4 271/5/4
f 271/5/4 270/5/4 272/5/4
f 273/5/4 274/5/4 275/5/4
f 275/5/4 274/5/4 276/5/4
f 277/5/4 278/5/4 279/5/4
f 279/5/4 278/5/4 280/5/4
f 281/5/4 282/5/4 283/5/4
f 283/5/4 282/5/4 284/5/4
f 285/4/4 286/4/4 288/4/4
f 287/5/4 288/5/4 289/5/4
f 288/4/4 286/4/4 290/4/4
f 289/5/4 288/5/4 290/5/4
f 290/4/4 286/4/4 292/4/4
f 291/5/4 292/5/4 293/5/4
f 292/4/4 286/4/4 294/4/4
f 293/5/4 292/5/4 294/5/4
f 294/4/4 286/4/4 295/4/4
f 295/4/4 286/4/4 296/4/4
f 302/5/5 298/5/5 297/5/5
f 303/5/5 298/5/5 302/5/5
f 306/5/5 300/5/5 299/5/5
f 307/5/5 300/5/5 306/5/5
f 309/5/5 304/5/5 303/5/5
f 309/5/5 302/5/5 301/5/5
f 309/5/5 303/5/5 302/5/5
f 310/5/5 304/5/5 309/5/5
f 311/5/5 304/5/5 310/5/5
f 312/5/5 304/5/5 311/5/5
f 313/5/5 308/5/5 307/5/5
f 313/5/5 307/5/5 306/5/5
f 313/5/5 306/5/5 305/5/5
f 314/5/5 308/5/5 313/5/5
f 315/5/5 308/5/5 314/5/5
f 316/5/5 308/5/5 315/5/5
f 317/5/5 311/5/5 310/5/5
f 318/5/5 311/5/5 317/5/5
f 319/5/5 315/5/5 314/5/5
f 320/5/5 315/5/5 319/5/5
f 326/5/5 322/5/5 321/5/5
f 327/5/5 322/5/5 326/5/5
f 330/5/5 324/5/5 323/5/5
f 331/5/5 324/5/5 330/5/5
f 333/5/5 328/5/5 327/5/5
f 333/5/5 326/5/5 325/5/5
f 333/5/5 327/5/5 326/5/5
f 334/5/5 328/5/5 333/5/5
f 335/5/5 328/5/5 334/5/5
f 336/5/5 328/5/5 335/5/5
f 337/5/5 331/5/5 330/5/5
f 337/5/5 332/5/5 331/5/5
f 337/5/5 330/5/5 329/5/5
f 338/5/5 332/5/5 337/5/5
f 339/5/5 332/5/5 338/5/5
f 340/5/5 332/5/5 339/5/5
f 341/5/5 335/5/5 334/5/5
f 342/5/5 335/5/5 341/5/5
f 343/5/5 339/5/5 338/5/5
f 344/5/5 339/5/5 343/5/5
f 347/4/5 346/4/5 345/4/5
f 348/4/5 346/4/5 347/4/5
f 349/4/5 346/4/5 348/4/5
f 350/4/5 346/4/5 349/4/5
f 351/4/5 347/4/5 345/4/5
f 352/4/5 347/4/5 351/4/5
f 353/4/5 349/4/5 348/4/5
f 354/4/5 349/4/5 353/4/5
f 355/4/5 349/4/5 354/4/5
f 356/4/5 349/4/5 355/4/5
f 357/4/5 346/4/5 350/4/5
f 358/4/5 346/4/5 357/4/5
f 359/4/5 351/4/5 345/4/5
f 362/4/5 355/4/5 354/4/5
f 363/4/5 355/4/5 362/4/5
f 366/4/5 346/4/5 358/4/5
f 367/4/5 360/4/5 359/4/5
f 368/4/5 364/4/5 363/4/5
f 368/4/5 362/4/5 361/4/5
f 368/4/5 363/4/5 362/4/5
f 369/4/5 364/4/5 368/4/5
f 370/4/5 366/4/5 365/4/5
f 371/4/5 367/4/5 359/4/5
f 371/4/5 370/4/5 369/4/5
f 371/4/5 369/4/5 368/4/5
f 371/4/5 368/4/5 367/4/5
f 372/4/5 370/4/5 371/4/5
f 373/4/5 370/4/5 372/4/5
f 374/4/5 366/4/5 370/4/5
f 374/4/5 370/4/5 373/4/5
f 375/4/5 359/4/5 345/4/5
f 375/4/5 371/4/5 359/4/5
f 376/4/5 371/4/5 375/4/5
f 377/4/5 373/4/5 372/4/5
f 378/4/5 373/4/5 377/4/5
f 379/4/5 373/4/5 378/4/5
f 380/4/5 373/4/5 379/4/5
f 381/4/5 366/4/5 374/4/5
f 382/4/5 346/4/5 366/4/5
f 382/4/5 366/4/5 381/4/5
f 383/4/5 375/4/5 345/4/5
f 386/4/5 379/4/5 378/4/5
f 387/4/5 379/4/5 386/4/5
f 390/4/5 346/4/5 382/4/5
f 391/4/5 384/4/5 383/4/5
f 391/4/5 383/4/5 345/4/5
f 392/4/5 384/4/5 391/4/5
f 393/4/5 388/4/5 387/4/5
f 393/4/5 386/4/5 385/4/5
f 393/4/5 387/4/5 386/4/5
f 394/4/5 388/4/5 393/4/5
f 395/4/5 390/4/5 389/4/5
f 396/4/5 346/4/5 390/4/5
f 396/4/5 390/4/5 395/4/5
f 397/4/6 398/4/6 399/4/6
f 399/4/6 398/4/6 400/4/6
f 401/4/6 402/4/6 403/4/6
f 403/4/6 402/4/6 404/4/6
f 405/3/6 406/3/6 407/3/6
f 407/3/6 406/3/6 408/3/6
f 409/3/6 410/3/6 411/3/6
f 411/3/6 410/3/6 412/3/6
f 413/3/6 414/3/6 415/3/6
f 415/3/6 414/3/6 416/3/6
f 417/2/6 418/2/6 419/2/6
f 419/2/6 418/2/6 420/2/6
f 421/2/6 422/2/6 423/2/6
f 423/2/6 422/2/6 424/2/6
f 425/2/6 426/2/6 429/2/6
f 429/2/6 426/2/6 430/2/6
f 427/2/6 428/2/6 431/2/6
f 431/2/6 428/2/6 432/2/6
f 433/2/6 434/2/6 437/2/6
f 437/2/6 434/2/6 438/2/6
f 435/2/6 436/2/6 439/2/6
f 439/2/6 436/2/6 440/2/6
