# MagicaVoxel @ Ephtracy

# material
mtllib desk.mtl
usemtl palette

# normals
vn -1 0 0
vn 1 0 0
vn 0 0 1
vn 0 0 -1
vn 0 -1 0
vn 0 1 0

# texcoords
vt 0.716797 0.5
vt 0.873047 0.5
vt 0.876953 0.5
vt 0.986328 0.5

# verts
v -8 0 10
v -8 0 9
v -8 0 -9
v -8 0 -10
v -8 1 10
v -8 1 9
v -8 1 -9
v -8 1 -10
v -8 15 10
v -8 15 -10
v -8 16 10
v -8 16 -10
v -3 1 10
v -3 1 9
v -3 1 -9
v -3 1 -10
v -3 15 10
v -3 15 9
v -3 15 -9
v -3 15 -10
v 3 1 10
v 3 1 9
v 3 1 -9
v 3 1 -10
v 3 15 10
v 3 15 9
v 3 15 -9
v 3 15 -10
v 8 0 10
v 8 0 9
v 8 0 -9
v 8 0 -10
v 8 1 10
v 8 1 9
v 8 1 -9
v 8 1 -10
v 8 15 10
v 8 15 -10
v 8 16 10
v 8 16 -10
v -8 0 10
v -8 1 10
v -8 15 10
v -8 16 10
v -3 1 10
v -3 15 10
v 3 1 10
v 3 15 10
v 8 0 10
v 8 1 10
v 8 15 10
v 8 16 10
v -8 0 -9
v -8 1 -9
v -3 1 -9
v -3 15 -9
v 3 1 -9
v 3 15 -9
v 8 0 -9
v 8 1 -9
v -8 0 9
v -8 1 9
v -3 1 9
v -3 15 9
v 3 1 9
v 3 15 9
v 8 0 9
v 8 1 9
v -8 0 -10
v -8 1 -10
v -8 15 -10
v -8 16 -10
v -3 1 -10
v -3 15 -10
v 3 1 -10
v 3 15 -10
v 8 0 -10
v 8 1 -10
v 8 15 -10
v 8 16 -10
v -8 0 10
v 8 0 10
v -8 0 9
v 8 0 9
v -8 0 -9
v 8 0 -9
v -8 0 -10
v 8 0 -10
v -8 15 10
v -3 15 10
v 3 15 10
v 8 15 10
v -3 15 9
v 3 15 9
v -3 15 -9
v 3 15 -9
v -8 15 -10
v -3 15 -10
v 3 15 -10
v 8 15 -10
v -8 1 10
v -3 1 10
v 3 1 10
v 8 1 10
v -8 1 9
v -3 1 9
v 3 1 9
v 8 1 9
v -8 1 -9
v -3 1 -9
v 3 1 -9
v 8 1 -9
v -8 1 -10
v -3 1 -10
v 3 1 -10
v 8 1 -10
v -8 16 10
v 8 16 10
v -8 16 -10
v 8 16 -10

# faces
f 5/3/1 2/3/1 1/3/1
f 6/3/1 2/3/1 5/3/1
f 7/2/1 4/2/1 3/2/1
f 8/2/1 4/2/1 7/2/1
f 11/1/1 10/1/1 9/1/1
f 12/1/1 10/1/1 11/1/1
f 17/4/1 14/4/1 13/4/1
f 18/4/1 14/4/1 17/4/1
f 19/4/1 16/4/1 15/4/1
f 20/4/1 16/4/1 19/4/1
f 21/4/2 22/4/2 25/4/2
f 25/4/2 22/4/2 26/4/2
f 23/4/2 24/4/2 27/4/2
f 27/4/2 24/4/2 28/4/2
f 29/3/2 30/3/2 33/3/2
f 33/3/2 30/3/2 34/3/2
f 31/2/2 32/2/2 35/2/2
f 35/2/2 32/2/2 36/2/2
f 37/1/2 38/1/2 39/1/2
f 39/1/2 38/1/2 40/1/2
f 45/3/3 42/3/3 41/3/3
f 46/1/3 44/1/3 43/1/3
f 47/3/3 45/3/3 41/3/3
f 47/4/3 46/4/3 45/4/3
f 48/1/3 44/1/3 46/1/3
f 48/4/3 46/4/3 47/4/3
f 49/3/3 47/3/3 41/3/3
f 50/3/3 47/3/3 49/3/3
f 51/1/3 44/1/3 48/1/3
f 52/1/3 44/1/3 51/1/3
f 55/2/3 54/2/3 53/2/3
f 57/2/3 55/2/3 53/2/3
f 57/4/3 56/4/3 55/4/3
f 58/4/3 56/4/3 57/4/3
f 59/2/3 57/2/3 53/2/3
f 60/2/3 57/2/3 59/2/3
f 61/3/4 62/3/4 63/3/4
f 61/3/4 63/3/4 65/3/4
f 63/4/4 64/4/4 65/4/4
f 65/4/4 64/4/4 66/4/4
f 61/3/4 65/3/4 67/3/4
f 67/3/4 65/3/4 68/3/4
f 69/2/4 70/2/4 73/2/4
f 71/1/4 72/1/4 74/1/4
f 69/2/4 73/2/4 75/2/4
f 73/4/4 74/4/4 75/4/4
f 74/1/4 72/1/4 76/1/4
f 75/4/4 74/4/4 76/4/4
f 69/2/4 75/2/4 77/2/4
f 77/2/4 75/2/4 78/2/4
f 76/1/4 72/1/4 79/1/4
f 79/1/4 72/1/4 80/1/4
f 83/3/5 82/3/5 81/3/5
f 84/3/5 82/3/5 83/3/5
f 87/2/5 86/2/5 85/2/5
f 88/2/5 86/2/5 87/2/5
f 93/1/5 90/1/5 89/1/5
f 94/1/5 92/1/5 91/1/5
f 95/1/5 93/1/5 89/1/5
f 95/1/5 94/1/5 93/1/5
f 96/1/5 92/1/5 94/1/5
f 96/1/5 94/1/5 95/1/5
f 97/1/5 95/1/5 89/1/5
f 98/1/5 95/1/5 97/1/5
f 99/1/5 92/1/5 96/1/5
f 100/1/5 92/1/5 99/1/5
f 101/3/6 102/3/6 105/3/6
f 105/3/6 102/3/6 106/3/6
f 103/3/6 104/3/6 107/3/6
f 107/3/6 104/3/6 108/3/6
f 109/2/6 110/2/6 113/2/6
f 113/2/6 110/2/6 114/2/6
f 111/2/6 112/2/6 115/2/6
f 115/2/6 112/2/6 116/2/6
f 117/1/6 118/1/6 119/1/6
f 119/1/6 118/1/6 120/1/6
